{
    "accessors": [
        {
            "bufferView": 0,
            "byteOffset": 0,
            "componentType": 5126,
            "count": 62,
            "max": [
                1.7163712978363037,
                0.12053395062685013,
                1.9818947315216064
            ],
            "min": [
                -1.7163712978363037,
                -0.4610136151313782,
                -1.9818947315216064
            ],
            "name": "accessor_buffer_Circle.001_POSITION_0",
            "type": "VEC3"
        },
        {
            "bufferView": 1,
            "byteOffset": 0,
            "componentType": 5126,
            "count": 62,
            "max": [
                0.8898282051086426,
                0.651387095451355,
                0.965727686882019
            ],
            "min": [
                -0.8898282051086426,
                0.2594683766365051,
                -0.965727686882019
            ],
            "name": "accessor_buffer_Circle.001_NORMAL_0",
            "type": "VEC3"
        },
        {
            "bufferView": 2,
            "byteOffset": 0,
            "componentType": 5126,
            "count": 62,
            "max": [
                1.0,
                1.0
            ],
            "min": [
                0.0,
                5.960464477539063e-08
            ],
            "name": "accessor_buffer_Circle.001_TEXCOORD_0_0",
            "type": "VEC2"
        },
        {
            "bufferView": 3,
            "byteOffset": 0,
            "componentType": 5123,
            "count": 108,
            "max": [
                61
            ],
            "min": [
                0
            ],
            "name": "accessor_buffer_Circle.001_0",
            "type": "SCALAR"
        }
    ],
    "asset": {
        "copyright": "",
        "generator": "blendergltf v1.2.0",
        "version": "2.0"
    },
    "bufferViews": [
        {
            "buffer": 0,
            "byteLength": 744,
            "byteOffset": 0,
            "byteStride": 12,
            "name": "bufferView_buffer_Circle.001_POSITION_0",
            "target": 34962
        },
        {
            "buffer": 1,
            "byteLength": 744,
            "byteOffset": 0,
            "byteStride": 12,
            "name": "bufferView_buffer_Circle.001_NORMAL_0",
            "target": 34962
        },
        {
            "buffer": 2,
            "byteLength": 496,
            "byteOffset": 0,
            "byteStride": 8,
            "name": "bufferView_buffer_Circle.001_TEXCOORD_0_0",
            "target": 34962
        },
        {
            "buffer": 3,
            "byteLength": 216,
            "byteOffset": 0,
            "name": "bufferView_buffer_Circle.001_0",
            "target": 34963
        }
    ],
    "buffers": [
        {
            "byteLength": 744,
            "name": "buffer_Circle.001_POSITION",
            "uri": "data:application/octet-stream;base64,"
        },
        {
            "byteLength": 744,
            "name": "buffer_Circle.001_NORMAL",
            "uri": "data:application/octet-stream;base64,"
        },
        {
            "byteLength": 496,
            "name": "buffer_Circle.001_TEXCOORD_0",
            "uri": "data:application/octet-stream;base64,"
        },
        {
            "byteLength": 216,
            "name": "buffer_Circle.001",
            "uri": "data:application/octet-stream;base64,"
        }
    ],
    "extensions": {
        "KHR_lights": {
            "lights": []
        }
    },
    "extensionsUsed": [
        "KHR_lights",
        "BLENDER_physics",
        "BP_materials_legacy"
    ],
    "images": [
        {
            "name": "rayhit",
            "uri": "../textures/effect/rayhit.png"
        }
    ],
    "materials": [
        {
            "alphaMode": "BLEND",
            "doubleSided": true,
            "emissiveFactor": [
                0.0,
                0.0,
                0.0
            ],
            "extensions": {
                "BP_materials_legacy": {
                    "bpLegacy": {
                        "ambientFactor": [
                            1.0,
                            1.0,
                            1.0,
                            1.0
                        ],
                        "diffuseFactor": [
                            0.800000011920929,
                            0.800000011920929,
                            0.800000011920929,
                            0.0
                        ],
                        "diffuseTexture": {
                            "index": 0,
                            "texCoord": 0
                        },
                        "diffuseTextureSrgb": true,
                        "emissionFactor": [
                            0.0,
                            0.0,
                            0.0,
                            0.0
                        ],
                        "shininessFactor": 50,
                        "specularFactor": [
                            1.0,
                            1.0,
                            1.0,
                            1.0
                        ]
                    }
                }
            },
            "name": "rayhit",
            "pbrMetallicRoughness": {
                "baseColorFactor": [
                    0.800000011920929,
                    0.800000011920929,
                    0.800000011920929,
                    0.0
                ],
                "baseColorTexture": {
                    "index": 0,
                    "texCoord": 0
                },
                "metallicFactor": 0.0,
                "roughnessFactor": 1.0
            }
        },
        {
            "alphaMode": "BLEND",
            "doubleSided": false,
            "emissiveFactor": [
                0.0,
                0.0,
                0.0
            ],
            "extensions": {
                "BP_materials_legacy": {
                    "bpLegacy": {
                        "ambientFactor": [
                            1.0,
                            1.0,
                            1.0,
                            1.0
                        ],
                        "diffuseFactor": [
                            0.800000011920929,
                            0.800000011920929,
                            0.800000011920929,
                            0.41584157943725586
                        ],
                        "emissionFactor": [
                            0.0,
                            0.0,
                            0.0,
                            0.41584157943725586
                        ],
                        "shininessFactor": 50,
                        "specularFactor": [
                            0.0,
                            0.0,
                            0.0,
                            1.0
                        ]
                    }
                }
            },
            "name": "raytrans",
            "pbrMetallicRoughness": {
                "baseColorFactor": [
                    0.800000011920929,
                    0.800000011920929,
                    0.800000011920929,
                    0.41584157943725586
                ],
                "metallicFactor": 0.0,
                "roughnessFactor": 1.0
            }
        }
    ],
    "meshes": [
        {
            "extras": {
                "yabee_name": "Circle.001"
            },
            "name": "Circle.001",
            "primitives": [
                {
                    "attributes": {
                        "NORMAL": 1,
                        "POSITION": 0,
                        "TEXCOORD_0": 2
                    },
                    "indices": 3,
                    "material": 0,
                    "mode": 4
                }
            ]
        }
    ],
    "nodes": [
        {
            "extras": {
                "yabee_name": "rayhist"
            },
            "mesh": 0,
            "name": "rayhist",
            "rotation": [
                0.0,
                0.0,
                0.0,
                1.0
            ],
            "scale": [
                1.0,
                1.0,
                1.0
            ],
            "translation": [
                0.0,
                0.0,
                0.0
            ]
        }
    ],
    "samplers": [
        {
            "magFilter": 9729,
            "minFilter": 9987,
            "name": "Texture",
            "wrapS": 10497,
            "wrapT": 10497
        }
    ],
    "scene": 0,
    "scenes": [
        {
            "extensions": {
                "BLENDER_physics": {
                    "gravity": -9.8100004196167
                }
            },
            "extras": {
                "background_color": [
                    0.05087608844041824,
                    0.05087608844041824,
                    0.05087608844041824
                ],
                "frames_per_second": 24
            },
            "name": "Scene",
            "nodes": [
                0
            ]
        }
    ],
    "textures": [
        {
            "name": "Texture",
            "sampler": 0,
            "source": 0
        }
    ]
}